# xmcd
#
# Track frame offsets:
#	150
#	12837
#	32845
#	49177
#	65975
#	86735
#	103845
#	123262
#	140695
#	155772
#	173025
#	189355
#	205197
#	219260
#	235312
#	251597
#	269447
#	286712
#	299802
#
# Disc length: 4220 seconds
#
# Revision: 2
# Processed by: cddbd v1.5.2PL0 Copyright (c) Steve Scherf et al.
# Submitted via: audiograbber 1.83.01
#
DISCID=26107a13
DTITLE=LeAnn Rimes - Greatest Hits CD 1
DYEAR=2003
DGENRE=Country
TTITLE0=Blue
TTITLE1=How Do I Live
TTITLE2=Can't Fight The Moonlight (Graham Stack Radio Edit)
TTITLE3=One Way Ticket (Because I Can)
TTITLE4=Commitment
TTITLE5=I Need You
TTITLE6=Written In The Stars (Duet with Elton John)
TTITLE7=Unchained Melody
TTITLE8=The Light In Your Eyes
TTITLE9=On The Side Of Angels
TTITLE10=You Light Up My Life
TTITLE11=Nothin' New Under The Moon
TTITLE12=Big Deal
TTITLE13=Life Goes On
TTITLE14=We Can
TTITLE15=Last Thing On My Mind (duet with Ronan Keating)
TTITLE16=This Love
TTITLE17=Crazy
TTITLE18=O Holy Night
EXTD=This is Disc 1 of 2 in this greatest hits set.  Since no one bothered to u
EXTD=pload it right
EXTT0=
EXTT1=
EXTT2=
EXTT3=
EXTT4=
EXTT5=
EXTT6=
EXTT7=
EXTT8=
EXTT9=
EXTT10=
EXTT11=
EXTT12=
EXTT13=
EXTT14=
EXTT15=
EXTT16=
EXTT17=
EXTT18=
PLAYORDER=
